<svg width="16" height="18" viewBox="0 0 16 18" fill="none" xmlns="http://www.w3.org/2000/svg">
<path d="M2.34175 2.3069C3.08466 1.57553 3.96665 0.995368 4.93735 0.599547C5.90805 0.203727 6.94845 0 7.99914 0C9.04983 0 10.0902 0.203727 11.0609 0.599547C12.0316 0.995368 12.9136 1.57553 13.6565 2.3069C15.1571 3.78474 16 5.78867 16 7.87811C16 9.96755 15.1571 11.9715 13.6565 13.4493L12.3673 14.7026L9.58321 17.369C9.1834 17.7499 8.65578 17.9735 8.09992 17.9978C7.54406 18.022 6.99841 17.8452 6.56594 17.5006L6.41507 17.369L4.08011 15.1357L2.34289 13.4482C0.842704 11.9704 0 9.96671 0 7.87754C0 5.78838 0.841561 3.7847 2.34175 2.3069ZM12.8519 3.10006C12.2151 2.47244 11.4588 1.97455 10.6263 1.63485C9.7938 1.29515 8.90146 1.1203 8.00029 1.1203C7.09911 1.1203 6.20677 1.29515 5.37429 1.63485C4.54181 1.97455 3.78551 2.47244 3.14864 3.10006C1.89782 4.33296 1.1788 5.99359 1.14154 7.73564C1.10428 9.47768 1.75164 11.1666 2.94863 12.4503L3.14864 12.6562L3.8001 13.2941L7.20825 16.5623L7.31454 16.6523C7.51237 16.7984 7.75299 16.8773 8.00029 16.8773C8.24758 16.8773 8.4882 16.7984 8.68603 16.6523L8.79232 16.5623L11.341 14.1232L12.8519 12.6562L13.0531 12.4503C14.2496 11.1666 14.8965 9.47775 14.8591 7.73598C14.8216 5.9942 14.1026 4.33276 12.8519 3.10006ZM7.99914 4.78087C8.41189 4.78094 8.82058 4.86104 9.20187 5.01659C9.58317 5.17214 9.92961 5.40009 10.2214 5.68744C10.5132 5.97478 10.7447 6.31589 10.9025 6.69128C11.0604 7.06667 11.1416 7.469 11.1416 7.87529C11.1415 8.28159 11.0601 8.68388 10.9021 9.05922C10.7441 9.43456 10.5125 9.77558 10.2206 10.0628C9.9287 10.3501 9.58217 10.5779 9.20082 10.7333C8.81946 10.8887 8.41074 10.9687 7.998 10.9686C7.16442 10.9686 6.36499 10.6426 5.77556 10.0624C5.18614 9.48221 4.855 8.69527 4.855 7.87473C4.855 7.05419 5.18614 6.26725 5.77556 5.68704C6.36499 5.10683 7.16442 4.78087 7.998 4.78087M7.998 5.90591C7.46754 5.90591 6.95881 6.11334 6.58372 6.48256C6.20863 6.85179 5.99791 7.35257 5.99791 7.87473C5.99791 8.3969 6.20863 8.89767 6.58372 9.2669C6.95881 9.63612 7.46754 9.84355 7.998 9.84355C8.52846 9.84355 9.03719 9.63612 9.41228 9.2669C9.78737 8.89767 9.99809 8.3969 9.99809 7.87473C9.99809 7.35257 9.78737 6.85179 9.41228 6.48256C9.03719 6.11334 8.52846 5.90591 7.998 5.90591Z" fill="#FF2D55"/>
</svg>
